<?xml version="1.0" encoding="UTF-8"?>
<!DOCTYPE svg
PUBLIC "-//W3C//DTD SVG 1.1//EN"
       "http://www.w3.org/Graphics/SVG/1.1/DTD/svg11.dtd">
<svg viewBox="23 27 930 565" width="907px" height="538px" xmlns="http://www.w3.org/2000/svg" version="1.1">
   <line x1="531" y1="212" x2="521" y2="212" style="stroke:#b0b;stroke-width:1;"/>
   <line x1="434" y1="188" x2="424" y2="188" style="stroke:#b0b;stroke-width:1;"/>
   <line x1="521" y1="212" x2="434" y2="188" style="stroke:#b0b;stroke-width:1;"/>
   <line x1="523,5" y1="212" x2="527,03553390593" y2="215,53553390593" style="stroke:#b0b;stroke-width:2;"/>
   <line x1="523,5" y1="212" x2="527,03553390593" y2="208,46446609407" style="stroke:#b0b;stroke-width:2;"/>
   <line x1="429" y1="188" x2="432,53553390593" y2="191,53553390593" style="stroke:#b0b;stroke-width:2;"/>
   <line x1="429" y1="188" x2="432,53553390593" y2="184,46446609407" style="stroke:#b0b;stroke-width:2;"/>
   <line x1="666" y1="232" x2="676" y2="232" style="stroke:#c00;stroke-width:1;"/>
   <line x1="770" y1="192" x2="780" y2="192" style="stroke:#c00;stroke-width:1;"/>
   <line x1="676" y1="232" x2="770" y2="192" style="stroke:#c00;stroke-width:1;"/>
   <line x1="673,5" y1="232" x2="669,96446609407" y2="235,53553390593" style="stroke:#c00;stroke-width:2;"/>
   <line x1="673,5" y1="232" x2="669,96446609407" y2="228,46446609407" style="stroke:#c00;stroke-width:2;"/>
   <line x1="775" y1="192" x2="771,46446609407" y2="195,53553390593" style="stroke:#c00;stroke-width:2;"/>
   <line x1="775" y1="192" x2="771,46446609407" y2="188,46446609407" style="stroke:#c00;stroke-width:2;"/>
   <line x1="664" y1="139" x2="674" y2="139" style="stroke:#cb0;stroke-width:1;"/>
   <line x1="770" y1="192" x2="780" y2="192" style="stroke:#cb0;stroke-width:1;"/>
   <line x1="674" y1="139" x2="770" y2="192" style="stroke:#cb0;stroke-width:1;"/>
   <line x1="671,5" y1="139" x2="667,96446609407" y2="142,53553390593" style="stroke:#cb0;stroke-width:2;"/>
   <line x1="671,5" y1="139" x2="667,96446609407" y2="135,46446609407" style="stroke:#cb0;stroke-width:2;"/>
   <line x1="775" y1="192" x2="771,46446609407" y2="195,53553390593" style="stroke:#cb0;stroke-width:2;"/>
   <line x1="775" y1="192" x2="771,46446609407" y2="188,46446609407" style="stroke:#cb0;stroke-width:2;"/>
   <line x1="421" y1="95" x2="431" y2="95" style="stroke:#b0b;stroke-width:1;"/>
   <line x1="519" y1="119" x2="529" y2="119" style="stroke:#b0b;stroke-width:1;"/>
   <line x1="431" y1="95" x2="519" y2="119" style="stroke:#b0b;stroke-width:1;"/>
   <line x1="428,5" y1="95" x2="424,96446609407" y2="98,535533905933" style="stroke:#b0b;stroke-width:2;"/>
   <line x1="428,5" y1="95" x2="424,96446609407" y2="91,464466094067" style="stroke:#b0b;stroke-width:2;"/>
   <line x1="524" y1="119" x2="520,46446609407" y2="122,53553390593" style="stroke:#b0b;stroke-width:2;"/>
   <line x1="524" y1="119" x2="520,46446609407" y2="115,46446609407" style="stroke:#b0b;stroke-width:2;"/>
   <line x1="286" y1="75" x2="276" y2="75" style="stroke:#0bf;stroke-width:1;"/>
   <line x1="185" y1="72" x2="175" y2="72" style="stroke:#0bf;stroke-width:1;"/>
   <line x1="276" y1="75" x2="185" y2="72" style="stroke:#0bf;stroke-width:1;"/>
   <line x1="278,5" y1="75" x2="282,03553390593" y2="78,535533905933" style="stroke:#0bf;stroke-width:2;"/>
   <line x1="278,5" y1="75" x2="282,03553390593" y2="71,464466094067" style="stroke:#0bf;stroke-width:2;"/>
   <line x1="180" y1="72" x2="183,53553390593" y2="75,535533905933" style="stroke:#0bf;stroke-width:2;"/>
   <line x1="180" y1="72" x2="183,53553390593" y2="68,464466094067" style="stroke:#0bf;stroke-width:2;"/>
   <line x1="780" y1="312" x2="770" y2="312" style="stroke:#cb0;stroke-width:1;"/>
   <line x1="772" y1="357" x2="782" y2="357" style="stroke:#cb0;stroke-width:1;"/>
   <line x1="770" y1="312" x2="772" y2="357" style="stroke:#cb0;stroke-width:1;"/>
   <line x1="772,5" y1="312" x2="776,03553390593" y2="315,53553390593" style="stroke:#cb0;stroke-width:2;"/>
   <line x1="772,5" y1="312" x2="776,03553390593" y2="308,46446609407" style="stroke:#cb0;stroke-width:2;"/>
   <line x1="777" y1="357" x2="773,46446609407" y2="360,53553390593" style="stroke:#cb0;stroke-width:2;"/>
   <line x1="777" y1="357" x2="773,46446609407" y2="353,46446609407" style="stroke:#cb0;stroke-width:2;"/>
   <rect width="135" height="20" x="289" y="158" style="fill:#007;stroke:black;"/>
   <text width="135" height="20" x="294" y="172" style="fill:#fff;" font-family="Arial" font-size="16px"> actors</text>
   <rect width="135" height="20" x="289" y="178" style="fill:#aea;stroke:black;"/>
   <text width="135" height="20" x="294" y="192" style="fill:black;" font-family="Arial" font-size="16px">id</text>
   <rect width="135" height="20" x="289" y="198" style="fill:none;stroke:black;"/>
   <text width="135" height="20" x="294" y="212" style="fill:black;" font-family="Arial" font-size="16px">firstName</text>
   <rect width="135" height="20" x="289" y="218" style="fill:none;stroke:black;"/>
   <text width="135" height="20" x="294" y="232" style="fill:black;" font-family="Arial" font-size="16px">lastName</text>
   <rect width="135" height="20" x="289" y="238" style="fill:none;stroke:black;"/>
   <text width="135" height="20" x="294" y="252" style="fill:black;" font-family="Arial" font-size="16px">photo</text>
   <rect width="135" height="20" x="531" y="182" style="fill:#007;stroke:black;"/>
   <text width="135" height="20" x="536" y="196" style="fill:#fff;" font-family="Arial" font-size="16px"> cast</text>
   <rect width="135" height="20" x="531" y="202" style="fill:none;stroke:black;"/>
   <text width="135" height="20" x="536" y="216" style="fill:black;" font-family="Arial" font-size="16px">actor_id</text>
   <rect width="135" height="20" x="531" y="222" style="fill:none;stroke:black;"/>
   <text width="135" height="20" x="536" y="236" style="fill:black;" font-family="Arial" font-size="16px">movie_id</text>
   <rect width="135" height="20" x="782" y="327" style="fill:#007;stroke:black;"/>
   <text width="135" height="20" x="787" y="341" style="fill:#fff;" font-family="Arial" font-size="16px"> categories</text>
   <rect width="135" height="20" x="782" y="347" style="fill:#aea;stroke:black;"/>
   <text width="135" height="20" x="787" y="361" style="fill:black;" font-family="Arial" font-size="16px">id</text>
   <rect width="135" height="20" x="782" y="367" style="fill:none;stroke:black;"/>
   <text width="135" height="20" x="787" y="381" style="fill:black;" font-family="Arial" font-size="16px">name</text>
   <rect width="135" height="20" x="529" y="89" style="fill:#007;stroke:black;"/>
   <text width="135" height="20" x="534" y="103" style="fill:#fff;" font-family="Arial" font-size="16px"> copies</text>
   <rect width="135" height="20" x="529" y="109" style="fill:#aea;stroke:black;"/>
   <text width="135" height="20" x="534" y="123" style="fill:black;" font-family="Arial" font-size="16px">id</text>
   <rect width="135" height="20" x="529" y="129" style="fill:none;stroke:black;"/>
   <text width="135" height="20" x="534" y="143" style="fill:black;" font-family="Arial" font-size="16px">movie_id</text>
   <rect width="135" height="20" x="529" y="149" style="fill:none;stroke:black;"/>
   <text width="135" height="20" x="534" y="163" style="fill:black;" font-family="Arial" font-size="16px">availability</text>
   <rect width="135" height="20" x="38" y="380" style="fill:#007;stroke:black;"/>
   <text width="135" height="20" x="43" y="394" style="fill:#fff;" font-family="Arial" font-size="16px"> failed_jobs</text>
   <rect width="135" height="20" x="38" y="400" style="fill:#aea;stroke:black;"/>
   <text width="135" height="20" x="43" y="414" style="fill:black;" font-family="Arial" font-size="16px">id</text>
   <rect width="135" height="20" x="38" y="420" style="fill:none;stroke:black;"/>
   <text width="135" height="20" x="43" y="434" style="fill:black;" font-family="Arial" font-size="16px">connection</text>
   <rect width="135" height="20" x="38" y="440" style="fill:none;stroke:black;"/>
   <text width="135" height="20" x="43" y="454" style="fill:black;" font-family="Arial" font-size="16px">queue</text>
   <rect width="135" height="20" x="38" y="460" style="fill:none;stroke:black;"/>
   <text width="135" height="20" x="43" y="474" style="fill:black;" font-family="Arial" font-size="16px">payload</text>
   <rect width="135" height="20" x="38" y="480" style="fill:none;stroke:black;"/>
   <text width="135" height="20" x="43" y="494" style="fill:black;" font-family="Arial" font-size="16px">exception</text>
   <rect width="135" height="20" x="38" y="500" style="fill:none;stroke:black;"/>
   <text width="135" height="20" x="43" y="514" style="fill:black;" font-family="Arial" font-size="16px">failed_at</text>
   <rect width="135" height="20" x="286" y="45" style="fill:#007;stroke:black;"/>
   <text width="135" height="20" x="291" y="59" style="fill:#fff;" font-family="Arial" font-size="16px"> loans</text>
   <rect width="135" height="20" x="286" y="65" style="fill:none;stroke:black;"/>
   <text width="135" height="20" x="291" y="79" style="fill:black;" font-family="Arial" font-size="16px">user_id</text>
   <rect width="135" height="20" x="286" y="85" style="fill:none;stroke:black;"/>
   <text width="135" height="20" x="291" y="99" style="fill:black;" font-family="Arial" font-size="16px">copy_id</text>
   <rect width="135" height="20" x="286" y="105" style="fill:none;stroke:black;"/>
   <text width="135" height="20" x="291" y="119" style="fill:black;" font-family="Arial" font-size="16px">dateOfLoan</text>
   <rect width="135" height="20" x="286" y="125" style="fill:none;stroke:black;"/>
   <text width="135" height="20" x="291" y="139" style="fill:black;" font-family="Arial" font-size="16px">dateOfReturn</text>
   <rect width="135" height="20" x="254" y="381" style="fill:#007;stroke:black;"/>
   <text width="135" height="20" x="259" y="395" style="fill:#fff;" font-family="Arial" font-size="16px"> migrations</text>
   <rect width="135" height="20" x="254" y="401" style="fill:#aea;stroke:black;"/>
   <text width="135" height="20" x="259" y="415" style="fill:black;" font-family="Arial" font-size="16px">id</text>
   <rect width="135" height="20" x="254" y="421" style="fill:none;stroke:black;"/>
   <text width="135" height="20" x="259" y="435" style="fill:black;" font-family="Arial" font-size="16px">migration</text>
   <rect width="135" height="20" x="254" y="441" style="fill:none;stroke:black;"/>
   <text width="135" height="20" x="259" y="455" style="fill:black;" font-family="Arial" font-size="16px">batch</text>
   <rect width="135" height="20" x="780" y="162" style="fill:#007;stroke:black;"/>
   <text width="135" height="20" x="785" y="176" style="fill:#fff;" font-family="Arial" font-size="16px"> movies</text>
   <rect width="135" height="20" x="780" y="182" style="fill:#aea;stroke:black;"/>
   <text width="135" height="20" x="785" y="196" style="fill:black;" font-family="Arial" font-size="16px">id</text>
   <rect width="135" height="20" x="780" y="202" style="fill:none;stroke:black;"/>
   <text width="135" height="20" x="785" y="216" style="fill:black;" font-family="Arial" font-size="16px">title</text>
   <rect width="135" height="20" x="780" y="222" style="fill:none;stroke:black;"/>
   <text width="135" height="20" x="785" y="236" style="fill:black;" font-family="Arial" font-size="16px">yearOfProduction</text>
   <rect width="135" height="20" x="780" y="242" style="fill:none;stroke:black;"/>
   <text width="135" height="20" x="785" y="256" style="fill:black;" font-family="Arial" font-size="16px">price</text>
   <rect width="135" height="20" x="780" y="262" style="fill:none;stroke:black;"/>
   <text width="135" height="20" x="785" y="276" style="fill:black;" font-family="Arial" font-size="16px">cover</text>
   <rect width="135" height="20" x="780" y="282" style="fill:none;stroke:black;"/>
   <text width="135" height="20" x="785" y="296" style="fill:black;" font-family="Arial" font-size="16px">description</text>
   <rect width="135" height="20" x="780" y="302" style="fill:none;stroke:black;"/>
   <text width="135" height="20" x="785" y="316" style="fill:black;" font-family="Arial" font-size="16px">category_id</text>
   <rect width="135" height="20" x="256" y="470" style="fill:#007;stroke:black;"/>
   <text width="135" height="20" x="261" y="484" style="fill:#fff;" font-family="Arial" font-size="16px"> password_resets</text>
   <rect width="135" height="20" x="256" y="490" style="fill:none;stroke:black;"/>
   <text width="135" height="20" x="261" y="504" style="fill:black;" font-family="Arial" font-size="16px">email</text>
   <rect width="135" height="20" x="256" y="510" style="fill:none;stroke:black;"/>
   <text width="135" height="20" x="261" y="524" style="fill:black;" font-family="Arial" font-size="16px">token</text>
   <rect width="135" height="20" x="256" y="530" style="fill:none;stroke:black;"/>
   <text width="135" height="20" x="261" y="544" style="fill:black;" font-family="Arial" font-size="16px">created_at</text>
   <rect width="135" height="20" x="40" y="42" style="fill:#007;stroke:black;"/>
   <text width="135" height="20" x="45" y="56" style="fill:#fff;" font-family="Arial" font-size="16px"> users</text>
   <rect width="135" height="20" x="40" y="62" style="fill:#aea;stroke:black;"/>
   <text width="135" height="20" x="45" y="76" style="fill:black;" font-family="Arial" font-size="16px">id</text>
   <rect width="135" height="20" x="40" y="82" style="fill:none;stroke:black;"/>
   <text width="135" height="20" x="45" y="96" style="fill:black;" font-family="Arial" font-size="16px">name</text>
   <rect width="135" height="20" x="40" y="102" style="fill:none;stroke:black;"/>
   <text width="135" height="20" x="45" y="116" style="fill:black;" font-family="Arial" font-size="16px">email</text>
   <rect width="135" height="20" x="40" y="122" style="fill:none;stroke:black;"/>
   <text width="135" height="20" x="45" y="136" style="fill:black;" font-family="Arial" font-size="16px">email_verified_at</text>
   <rect width="135" height="20" x="40" y="142" style="fill:none;stroke:black;"/>
   <text width="135" height="20" x="45" y="156" style="fill:black;" font-family="Arial" font-size="16px">password</text>
   <rect width="135" height="20" x="40" y="162" style="fill:none;stroke:black;"/>
   <text width="135" height="20" x="45" y="176" style="fill:black;" font-family="Arial" font-size="16px">remember_token</text>
   <rect width="135" height="20" x="40" y="182" style="fill:none;stroke:black;"/>
   <text width="135" height="20" x="45" y="196" style="fill:black;" font-family="Arial" font-size="16px">created_at</text>
   <rect width="135" height="20" x="40" y="202" style="fill:none;stroke:black;"/>
   <text width="135" height="20" x="45" y="216" style="fill:black;" font-family="Arial" font-size="16px">updated_at</text>
</svg>
